# xmcd
#
# Track frame offsets:
#	150
#	35511
#	71103
#	112224
#	144403
#	177021
#	204306
#	234835
#	268980
#	288058
#	310040
#
# Disc length: 4551 seconds
#
# Revision: 1
# Processed by: cddbd v1.5.2PL0 Copyright (c) Steve Scherf et al.
# Submitted via: audiograbber 1.83.01
#
DISCID=9c11c50b
DTITLE=james patterson - die 6. geisel cd 3
DYEAR=1900
DGENRE=01
TTITLE0=301
TTITLE1=302
TTITLE2=303
TTITLE3=304
TTITLE4=305
TTITLE5=306
TTITLE6=307
TTITLE7=308
TTITLE8=309
TTITLE9=310
TTITLE10=311
EXTD=
EXTT0=
EXTT1=
EXTT2=
EXTT3=
EXTT4=
EXTT5=
EXTT6=
EXTT7=
EXTT8=
EXTT9=
EXTT10=
PLAYORDER=
